<?xml version="1.0" encoding="UTF-8"?>
<svg id="Layer_1" xmlns="http://www.w3.org/2000/svg" version="1.1" viewBox="0 0 3000 600">
  <!-- Generator: Adobe Illustrator 29.7.1, SVG Export Plug-In . SVG Version: 2.1.1 Build 8)  -->
  <defs>
    <style>
      .st0 {
        fill: #fff;
      }

      .st1 {
        fill: #96bfea;
      }
    </style>
  </defs>
  <path class="st1" d="M562.16,429.27c-26.34,0-49.54-6.06-69.62-18.19-20.08-12.12-35.72-29.59-46.93-52.41-11.21-22.81-16.82-50.12-16.82-81.93s5.6-58.86,16.82-81.15c11.21-22.29,26.85-39.24,46.93-50.84,20.07-11.6,43.28-17.4,69.62-17.4s49.86,5.87,69.81,17.6c19.95,11.73,35.52,28.68,46.74,50.84,11.21,22.16,16.82,49.15,16.82,80.96s-5.61,59.12-16.82,81.93c-11.21,22.82-26.79,40.28-46.74,52.41-19.95,12.12-43.22,18.19-69.81,18.19ZM562.16,369.04c12.77,0,23.79-3.78,33.05-11.34,9.25-7.56,16.43-18.25,21.51-32.07,5.08-13.82,7.63-30.11,7.63-48.89s-2.54-34.87-7.63-48.3c-5.08-13.43-12.26-23.66-21.51-30.7-9.26-7.04-20.28-10.56-33.05-10.56s-23.8,3.52-33.05,10.56c-9.26,7.04-16.37,17.28-21.31,30.7-4.96,13.43-7.43,29.53-7.43,48.3s2.47,35.07,7.43,48.89c4.95,13.82,12.06,24.51,21.31,32.07,9.25,7.57,20.27,11.34,33.05,11.34Z"/>
  <path class="st1" d="M744.01,504.75V201.26h56.71l5.08,21.51h1.17c8.86-7.82,18.64-14.27,29.33-19.36,10.69-5.08,21.77-7.63,33.24-7.63,17.73,0,33.11,4.69,46.15,14.08,13.03,9.39,23.07,22.49,30.11,39.31,7.04,16.82,10.56,36.7,10.56,59.64,0,25.56-4.5,47.32-13.49,65.31-9,17.99-20.6,31.68-34.81,41.07-14.21,9.39-29.27,14.08-45.17,14.08-9.39,0-18.45-2.02-27.18-6.06-8.74-4.04-16.88-9.71-24.44-17.01l2.35,34.81v63.75h-69.62ZM846.48,372.17c7.04,0,13.49-2.08,19.36-6.26,5.87-4.17,10.49-10.82,13.88-19.95,3.39-9.12,5.08-21.12,5.08-35.98,0-13.03-1.31-23.79-3.91-32.27-2.61-8.47-6.52-14.79-11.73-18.97-5.22-4.17-12-6.26-20.34-6.26-6.52,0-12.52,1.5-17.99,4.5-5.48,3-11.21,7.76-17.21,14.27v88c5.48,4.96,11.01,8.35,16.62,10.17,5.6,1.83,11.01,2.74,16.23,2.74Z"/>
  <path class="st1" d="M1102.26,429.27c-21.38,0-40.61-4.63-57.69-13.88-17.08-9.25-30.64-22.62-40.67-40.09-10.04-17.46-15.06-38.46-15.06-62.97,0-17.99,2.93-34.15,8.8-48.5,5.87-14.34,13.82-26.59,23.86-36.76,10.03-10.17,21.38-17.92,34.03-23.27,12.64-5.34,25.62-8.02,38.91-8.02,21.38,0,39.11,4.69,53.19,14.08s24.64,22.16,31.68,38.33c7.04,16.17,10.56,34.42,10.56,54.75,0,6.26-.33,12.12-.98,17.6-.65,5.48-1.37,9.65-2.15,12.51h-130.63c2.08,10.17,5.73,18.38,10.95,24.64,5.21,6.26,11.6,10.89,19.16,13.88,7.56,3,16.04,4.5,25.42,4.5,8.08,0,15.9-1.17,23.47-3.52,7.56-2.35,15.38-5.87,23.47-10.56l23.07,41.85c-11.48,8.08-24.31,14.34-38.52,18.77-14.21,4.43-27.83,6.65-40.87,6.65ZM1054.93,287.31h75.87c0-10.95-2.68-20.07-8.02-27.38-5.35-7.3-14.41-10.95-27.18-10.95-6.26,0-12.19,1.37-17.79,4.11-5.61,2.74-10.43,6.91-14.47,12.52-4.05,5.61-6.84,12.85-8.41,21.71Z"/>
  <path class="st1" d="M1234.44,423.8v-222.53h56.71l5.08,27.77h1.17c9.12-9.12,19.49-16.95,31.09-23.47,11.6-6.51,24.96-9.78,40.09-9.78,24.25,0,41.85,8.08,52.8,24.25,10.95,16.17,16.43,38.2,16.43,66.1v137.67h-69.62v-129.06c0-15.38-2.09-25.81-6.26-31.29-4.17-5.48-10.69-8.21-19.55-8.21-7.82,0-14.47,1.7-19.95,5.08-5.48,3.39-11.6,8.35-18.38,14.86v148.62h-69.62Z"/>
  <path class="st0" d="M1497.26,423.8V132.43h71.18l72.35,139.62,28.55,64.53h1.96c-1.83-15.38-3.85-32.79-6.06-52.21-2.22-19.42-3.32-37.87-3.32-55.34v-96.6h66.49v291.37h-71.18l-71.96-140.4-28.55-63.75h-1.96c1.56,16.17,3.45,33.7,5.67,52.6,2.21,18.91,3.32,37.22,3.32,54.95v96.6h-66.49Z"/>
  <path class="st0" d="M1887.18,429.27c-18.77,0-36.51-4.63-53.19-13.88-16.69-9.25-30.18-22.62-40.48-40.09-10.3-17.46-15.45-38.46-15.45-62.97s5.15-45.43,15.45-62.77c10.3-17.34,23.79-30.63,40.48-39.89,16.68-9.25,34.42-13.88,53.19-13.88,14.08,0,27.63,2.61,40.67,7.82,13.03,5.22,24.64,12.85,34.81,22.88,10.17,10.04,18.25,22.23,24.25,36.57,6,14.34,9,30.77,9,49.28,0,24.51-5.15,45.5-15.45,62.97-10.3,17.47-23.73,30.83-40.28,40.09-16.56,9.25-34.22,13.88-52.99,13.88ZM1887.18,372.96c8.6,0,15.71-2.48,21.31-7.43,5.6-4.95,9.71-11.99,12.32-21.12,2.6-9.12,3.91-19.81,3.91-32.07s-1.31-22.88-3.91-31.87c-2.61-9-6.72-15.97-12.32-20.92-5.61-4.95-12.71-7.43-21.31-7.43s-15.71,2.48-21.32,7.43c-5.61,4.96-9.78,11.93-12.51,20.92-2.74,9-4.11,19.62-4.11,31.87s1.37,22.95,4.11,32.07c2.74,9.13,6.91,16.17,12.51,21.12,5.6,4.96,12.71,7.43,21.32,7.43Z"/>
  <path class="st0" d="M2112.06,429.27c-18.52,0-33.57-3.72-45.17-11.15-11.6-7.43-20.08-17.73-25.42-30.9-5.35-13.16-8.02-28.48-8.02-45.95v-85.65h-30.11v-51.62l34.42-2.74,7.82-59.06h57.49v59.06h52.41v54.36h-52.41v84.87c0,12.26,2.67,21.06,8.02,26.4,5.34,5.35,12.06,8.02,20.14,8.02,3.65,0,7.3-.45,10.95-1.37,3.65-.91,6.78-1.89,9.39-2.93l10.95,50.45c-5.74,1.83-12.71,3.65-20.92,5.48-8.21,1.82-18.06,2.74-29.53,2.74Z"/>
  <path class="st0" d="M2288.06,429.27c-21.38,0-40.61-4.63-57.69-13.88-17.08-9.25-30.64-22.62-40.67-40.09-10.04-17.46-15.06-38.46-15.06-62.97,0-17.99,2.93-34.15,8.8-48.5,5.87-14.34,13.82-26.59,23.86-36.76,10.03-10.17,21.38-17.92,34.03-23.27,12.64-5.34,25.62-8.02,38.91-8.02,21.38,0,39.11,4.69,53.19,14.08,14.08,9.39,24.64,22.16,31.68,38.33,7.04,16.17,10.56,34.42,10.56,54.75,0,6.26-.33,12.12-.98,17.6-.65,5.48-1.37,9.65-2.15,12.51h-130.63c2.08,10.17,5.73,18.38,10.95,24.64,5.21,6.26,11.6,10.89,19.16,13.88,7.56,3,16.04,4.5,25.42,4.5,8.08,0,15.9-1.17,23.47-3.52,7.56-2.35,15.38-5.87,23.47-10.56l23.07,41.85c-11.48,8.08-24.32,14.34-38.52,18.77-14.21,4.43-27.84,6.65-40.87,6.65ZM2240.74,287.31h75.87c0-10.95-2.68-20.07-8.02-27.38-5.35-7.3-14.41-10.95-27.18-10.95-6.26,0-12.19,1.37-17.79,4.11-5.61,2.74-10.43,6.91-14.47,12.52-4.05,5.61-6.84,12.85-8.41,21.71Z"/>
  <path class="st0" d="M2486.73,429.27c-14.34,0-29.33-2.87-44.98-8.6-15.64-5.73-29.2-13.3-40.67-22.68l30.9-43.41c10.17,7.57,19.88,13.36,29.14,17.4,9.25,4.04,18.31,6.06,27.18,6.06s15.77-1.56,19.95-4.69c4.17-3.13,6.26-7.43,6.26-12.91,0-4.43-2.09-8.21-6.26-11.34-4.17-3.13-9.65-6.06-16.43-8.8-6.78-2.74-13.95-5.54-21.51-8.41-8.87-3.65-17.67-8.21-26.4-13.69-8.74-5.48-15.97-12.45-21.71-20.92-5.74-8.47-8.6-18.83-8.6-31.09,0-14.08,3.58-26.4,10.75-36.96,7.17-10.56,17.21-18.77,30.11-24.64,12.91-5.87,27.96-8.8,45.17-8.8s32.72,2.93,45.76,8.8c13.03,5.87,24.25,12.45,33.63,19.75l-30.9,41.46c-8.08-5.73-15.97-10.3-23.66-13.69-7.69-3.39-15.19-5.08-22.49-5.08-8.08,0-14.02,1.37-17.79,4.11-3.78,2.74-5.67,6.72-5.67,11.93,0,4.44,1.89,8.08,5.67,10.95,3.78,2.87,8.93,5.48,15.45,7.82,6.51,2.35,13.55,4.96,21.12,7.82,7.04,2.61,14.01,5.67,20.92,9.19,6.91,3.52,13.23,7.89,18.97,13.1,5.73,5.22,10.3,11.41,13.69,18.58,3.38,7.17,5.08,15.84,5.08,26.01,0,13.56-3.52,25.88-10.56,36.96-7.04,11.08-17.4,19.82-31.09,26.2-13.69,6.39-30.7,9.58-51.04,9.58Z"/>
</svg>
